{"asset":{"version":"2.0","generator":"THREE.GLTFExporter r172"},"scenes":[{"nodes":[0,1]}],"scene":0,"nodes":[{"name":"Buildings","mesh":0},{"name":"Ground","mesh":1}],"bufferViews":[{"buffer":0,"byteOffset":0,"byteLength":1039392,"target":34962,"byteStride":12},{"buffer":0,"byteOffset":1039392,"byteLength":692928,"target":34962,"byteStride":8},{"buffer":0,"byteOffset":1732320,"byteLength":1039392,"target":34962,"byteStride":12},{"buffer":0,"byteOffset":2771712,"byteLength":9072,"target":34962,"byteStride":12},{"buffer":0,"byteOffset":2780784,"byteLength":6048,"target":34962,"byteStride":8},{"buffer":0,"byteOffset":2786832,"byteLength":9072,"target":34962,"byteStride":12}],"buffers":[{"byteLength":2795904,"uri":"data:application/octet-stream;base64,"}],"accessors":[{"bufferView":0,"componentType":5126,"count":86616,"max":[489.3703308105469,40,512.1392822265625],"min":[-510.4214782714844,-6.880102363477844e-14,-491.82830810546875],"type":"VEC3"},{"bufferView":1,"componentType":5126,"count":86616,"max":[512.1392822265625,512.1392822265625],"min":[-491.82830810546875,-491.82830810546875],"type":"VEC2"},{"bufferView":2,"componentType":5126,"count":86616,"max":[1,1,1],"min":[-1,-1,-1],"type":"VEC3"},{"bufferView":3,"componentType":5126,"count":756,"max":[497.51104736328125,0,514.3615112304688],"min":[-510.4214782714844,-2,-493.5716552734375],"type":"VEC3"},{"bufferView":4,"componentType":5126,"count":756,"max":[510.4214782714844,514.3615112304688],"min":[-497.51104736328125,-493.5716552734375],"type":"VEC2"},{"bufferView":5,"componentType":5126,"count":756,"max":[0.9987955689430237,1,0.9987979531288147],"min":[-0.9987953305244446,-1,-0.9987980723381042],"type":"VEC3"}],"materials":[{"pbrMetallicRoughness":{"baseColorFactor":[0.31854677811435356,0.31854677811435356,0.31854677811435356,1],"metallicFactor":0,"roughnessFactor":1}},{"pbrMetallicRoughness":{"baseColorFactor":[0.7230551289161951,0.7230551289161951,0.7230551289161951,1],"metallicFactor":0,"roughnessFactor":1},"doubleSided":true}],"meshes":[{"primitives":[{"mode":4,"attributes":{"POSITION":0,"TEXCOORD_0":1,"NORMAL":2},"material":0}]},{"primitives":[{"mode":4,"attributes":{"POSITION":3,"TEXCOORD_0":4,"NORMAL":5},"material":1}]}]}