{"asset":{"version":"2.0","generator":"THREE.GLTFExporter r172"},"scenes":[{"nodes":[0,1]}],"scene":0,"nodes":[{"name":"Buildings","mesh":0},{"name":"Ground","mesh":1}],"bufferViews":[{"buffer":0,"byteOffset":0,"byteLength":422064,"target":34962,"byteStride":12},{"buffer":0,"byteOffset":422064,"byteLength":281376,"target":34962,"byteStride":8},{"buffer":0,"byteOffset":703440,"byteLength":422064,"target":34962,"byteStride":12},{"buffer":0,"byteOffset":1125504,"byteLength":576,"target":34962,"byteStride":12},{"buffer":0,"byteOffset":1126080,"byteLength":384,"target":34962,"byteStride":8},{"buffer":0,"byteOffset":1126464,"byteLength":576,"target":34962,"byteStride":12}],"buffers":[{"byteLength":1127040,"uri":"data:application/octet-stream;base64,"}],"accessors":[{"bufferView":0,"componentType":5126,"count":35172,"max":[711.3250732421875,42,228.8452606201172],"min":[-727.1415405273438,-4.355609772052453e-14,-213.9146728515625],"type":"VEC3"},{"bufferView":1,"componentType":5126,"count":35172,"max":[727.1415405273438,727.1415405273438],"min":[-711.3250732421875,-711.3250732421875],"type":"VEC2"},{"bufferView":2,"componentType":5126,"count":35172,"max":[0.9995793700218201,1,0.9999802112579346],"min":[-0.9997084736824036,-1,-1],"type":"VEC3"},{"bufferView":3,"componentType":5126,"count":48,"max":[714.2680053710938,0,236.27740478515625],"min":[-727.727294921875,-2,-214.34262084960938],"type":"VEC3"},{"bufferView":4,"componentType":5126,"count":48,"max":[727.727294921875,727.727294921875],"min":[-714.2680053710938,-714.2680053710938],"type":"VEC2"},{"bufferView":5,"componentType":5126,"count":48,"max":[1,1,0.9817795157432556],"min":[-0.9969086647033691,-1,-0.9828382134437561],"type":"VEC3"}],"materials":[{"pbrMetallicRoughness":{"baseColorFactor":[0.31854677811435356,0.31854677811435356,0.31854677811435356,1],"metallicFactor":0,"roughnessFactor":1}},{"pbrMetallicRoughness":{"baseColorFactor":[0.7230551289161951,0.7230551289161951,0.7230551289161951,1],"metallicFactor":0,"roughnessFactor":1},"doubleSided":true}],"meshes":[{"primitives":[{"mode":4,"attributes":{"POSITION":0,"TEXCOORD_0":1,"NORMAL":2},"material":0}]},{"primitives":[{"mode":4,"attributes":{"POSITION":3,"TEXCOORD_0":4,"NORMAL":5},"material":1}]}]}